<svg width="80" height="80" viewBox="0 0 80 80" fill="none" xmlns="http://www.w3.org/2000/svg">
  <path fill-rule="evenodd" clip-rule="evenodd" d="M40 8C31.1634 8 24 15.1634 24 24V40C24 47.8112 29.5974 54.315 37 55.7192L37 72C37 73.6569 38.3431 75 40 75C41.6569 75 43 73.6569 43 72V55.7192C50.4026 54.315 56 47.8112 56 40V24C56 15.1634 48.8366 8 40 8ZM43 55.7192V48.2426L50.1213 41.1213C51.2929 39.9497 51.2929 38.0503 50.1213 36.8787C48.9497 35.7071 47.0503 35.7071 45.8787 36.8787L43 39.7574V36.2426L46.1213 33.1213C47.2929 31.9497 47.2929 30.0503 46.1213 28.8787C45.2772 28.0346 44.0553 27.7987 43 28.1708V24C43 22.3431 41.6569 21 40 21C38.3431 21 37 22.3431 37 24V28.1708C35.9447 27.7987 34.7228 28.0346 33.8787 28.8787C32.7071 30.0503 32.7071 31.9497 33.8787 33.1213L37 36.2426V39.7574L34.1213 36.8787C32.9497 35.7071 31.0503 35.7071 29.8787 36.8787C28.7071 38.0503 28.7071 39.9497 29.8787 41.1213L37 48.2426L37 55.7192C37.9718 55.9035 38.9746 56 40 56C41.0254 56 42.0282 55.9035 43 55.7192Z" fill="#b2c98f" />
</svg>
